<?xml version="1.0" encoding="UTF-8" standalone="no"?>
<!-- Created with Inkscape (http://www.inkscape.org/) -->

<svg
   xmlns:dc="http://purl.org/dc/elements/1.1/"
   xmlns:cc="http://creativecommons.org/ns#"
   xmlns:rdf="http://www.w3.org/1999/02/22-rdf-syntax-ns#"
   xmlns:svg="http://www.w3.org/2000/svg"
   xmlns="http://www.w3.org/2000/svg"
   xmlns:sodipodi="http://sodipodi.sourceforge.net/DTD/sodipodi-0.dtd"
   xmlns:inkscape="http://www.inkscape.org/namespaces/inkscape"
   width="744.09448819"
   height="1052.3622047"
   id="svg2"
   version="1.1"
   inkscape:version="0.48.4 r9939"
   sodipodi:docname="New document 1">
  <defs
     id="defs4" />
  <sodipodi:namedview
     id="base"
     pagecolor="#ffffff"
     bordercolor="#666666"
     borderopacity="1.0"
     inkscape:pageopacity="0.0"
     inkscape:pageshadow="2"
     inkscape:zoom="2.0149341"
     inkscape:cx="329.16681"
     inkscape:cy="576.1066"
     inkscape:document-units="px"
     inkscape:current-layer="layer1"
     showgrid="false"
     inkscape:window-width="1366"
     inkscape:window-height="718"
     inkscape:window-x="0"
     inkscape:window-y="0"
     inkscape:window-maximized="1" />
  <metadata
     id="metadata7">
    <rdf:RDF>
      <cc:Work
         rdf:about="">
        <dc:format>image/svg+xml</dc:format>
        <dc:type
           rdf:resource="http://purl.org/dc/dcmitype/StillImage" />
        <dc:title></dc:title>
      </cc:Work>
    </rdf:RDF>
  </metadata>
  <g
     inkscape:label="Layer 1"
     inkscape:groupmode="layer"
     id="layer1">
    <path
       sodipodi:type="arc"
       style="fill:#d9edcd;fill-opacity:0;stroke:#000000;stroke-opacity:1"
       id="path3763"
       sodipodi:cx="366.54929"
       sodipodi:cy="399.8974"
       sodipodi:rx="5.9859157"
       sodipodi:ry="5.9859157"
       d="m 372.5352,399.8974 a 5.9859157,5.9859157 0 1 1 -11.97183,0 5.9859157,5.9859157 0 1 1 11.97183,0 z"
       transform="translate(-0.49629414,0)" />
    <path
       transform="translate(43.154962,2.062624)"
       sodipodi:type="arc"
       style="fill:#d9edcd;fill-opacity:0;stroke:#000000;stroke-opacity:1"
       id="path3763-9"
       sodipodi:cx="366.54929"
       sodipodi:cy="399.8974"
       sodipodi:rx="5.9859157"
       sodipodi:ry="5.9859157"
       d="m 372.5352,399.8974 a 5.9859157,5.9859157 0 1 1 -11.97183,0 5.9859157,5.9859157 0 1 1 11.97183,0 z" />
    <path
       style="fill:none;stroke:#000000;stroke-width:1px;stroke-linecap:butt;stroke-linejoin:miter;stroke-opacity:1"
       d="m 376.19096,401.72056 c 0.66173,0 1.33246,0.10879 1.98518,0 0.36488,-0.0608 0.62985,-0.42375 0.99259,-0.49629 3.78604,0 -0.39151,0.22194 2.48147,-0.4963 0.44308,-0.11077 1.90699,0 2.48147,0 1.65431,0 3.30863,0 4.96294,0 2.81233,0 5.62467,0 8.437,0 0.49629,0 0.99259,0 1.48888,0 0.16543,0 0.4963,-0.16543 0.4963,0 0,0.16543 -0.66173,0 -0.4963,0 0.33086,0 0.66173,0 0.99259,0 0.16543,0 0.49629,-0.16543 0.49629,0 0,0.16543 -0.66172,0 -0.49629,0 0.49629,0 0.99259,0 1.48888,0"
       id="path3787"
       inkscape:connector-curvature="0" />
    <path
       style="fill:none;stroke:#000000;stroke-width:1px;stroke-linecap:butt;stroke-linejoin:miter;stroke-opacity:1"
       d="m 419.86485,403.70574 c 2.6469,0 5.2938,0 7.9407,0 0.3361,0 3.24797,0.0754 3.47406,0 0.22195,-0.074 0.33086,-0.33087 0.4963,-0.4963 0.49629,0 0.99258,0 1.48888,0 0.19619,0 2.26951,0.10598 2.48147,0 0.20925,-0.10463 0.33086,-0.66172 0.49629,-0.49629 0.16543,0.16543 -0.60092,0.70555 -0.49629,0.49629 0.26675,-0.5335 0.61997,-1.02311 0.99259,-1.48888 0.6882,-0.86026 1.69844,-1.33454 1.98517,-2.48147 0.0944,-0.37742 0,-2.06588 0,-2.48147 0,-1.81975 0,-3.63949 0,-5.45924 0,-2.31604 0,-4.63208 0,-6.94812 0,-0.42105 0.0823,-2.64849 0,-2.97776 -0.35984,-1.43937 -0.38719,-0.5808 -0.99258,-1.48888 -0.2052,-0.30779 -0.29111,-0.6848 -0.4963,-0.99259 -0.13759,-0.20639 -1.80767,-1.89643 -1.98518,-1.98518 -0.14796,-0.074 -0.34832,0.074 -0.49629,0 -0.20926,-0.10463 -0.30163,-0.36652 -0.49629,-0.49629 -0.30779,-0.20519 -0.6848,-0.2911 -0.99259,-0.4963 -0.19466,-0.12977 -0.28704,-0.39166 -0.4963,-0.49629 -0.15089,-0.0754 -1.64247,0 -1.98517,0 -1.81975,0 -3.63949,0 -5.45924,0 -1.81974,0 -3.63949,0 -5.45923,0 -0.36432,0 -2.80475,-0.0865 -2.97777,0 -1.646,1.646 0.46791,-0.23396 -0.99259,0.49629 -0.20925,0.10463 -0.27434,0.42231 -0.49629,0.4963 -0.44536,0.31388 -1.01806,-0.15694 -1.48888,0 -0.35094,0.11698 -0.64166,0.37931 -0.99259,0.49629 -0.28001,0.0933 -1.16277,0 -1.48888,0 -0.82716,0 -1.65432,0 -2.48147,0 -0.31123,0 -1.92388,0.0613 -1.98518,0 -0.26157,-0.26157 -0.2911,-0.6848 -0.4963,-0.99259 -0.60539,-0.90808 -0.63274,-0.0495 -0.99258,-1.48888 -0.0803,-0.32098 0.0802,-0.6716 0,-0.99259 -0.0805,-0.32191 -1.27804,-2.66149 -1.48889,-2.97776 -0.12977,-0.19466 -0.42231,-0.27435 -0.49629,-0.4963 -0.10463,-0.31388 0.10463,-0.6787 0,-0.99258 -0.074,-0.22195 -0.36652,-0.30164 -0.49629,-0.4963 -0.2052,-0.30779 -0.35892,-0.64913 -0.4963,-0.99259 -0.19429,-0.48572 -0.302,-1.00316 -0.49629,-1.48888 -0.27477,-0.68692 -0.75864,-1.28331 -0.99259,-1.98518 -0.0523,-0.15694 0.074,-0.34832 0,-0.49629 -0.10463,-0.20926 -0.33086,-0.33086 -0.4963,-0.49629 -0.16543,-0.16544 -0.28703,-0.39167 -0.49629,-0.4963 -0.14797,-0.074 -0.34833,0.074 -0.49629,0 -0.20926,-0.10463 -0.28704,-0.39166 -0.4963,-0.49629 -0.14796,-0.074 -0.33086,0 -0.49629,0 -0.33086,0 -0.67871,0.10463 -0.99259,0 -0.22195,-0.074 -0.28704,-0.39167 -0.49629,-0.4963 -0.14797,-0.074 -0.34833,0.074 -0.4963,0 -0.20925,-0.10462 -0.27434,-0.42231 -0.49629,-0.49629 -0.31389,-0.10463 -0.67871,0.10463 -0.99259,0 -0.22195,-0.074 -0.28704,-0.39167 -0.4963,-0.49629 -0.29593,-0.14797 -0.69665,0.14796 -0.99258,0 -0.20926,-0.10463 -0.28704,-0.39167 -0.4963,-0.4963 -0.29282,-0.14641 -1.14751,0.11379 -1.48888,0 -0.35093,-0.11698 -0.64166,-0.37932 -0.99259,-0.49629 -0.2686,-0.0895 -1.8161,0 -1.98517,0 -1.32346,0 -2.64691,0 -3.97036,0 -4.30121,0 -8.60243,0 -12.90365,0 -1.65431,0 -3.30862,0 -4.96294,0 -0.33086,0 -0.66172,0 -0.99259,0 -0.16543,0 -0.37931,-0.11698 -0.49629,0 -0.15752,0.15751 -1.39434,2.69414 -1.48888,2.97776 -0.15694,0.47083 0.12037,1.00741 0,1.48888 -0.14057,0.5623 -1.29481,2.23888 -1.48888,2.48148 -0.29231,0.36537 -0.78334,0.57407 -0.99259,0.99258 -0.14797,0.29594 0.0802,0.67161 0,0.99259 0.29913,0.89826 -0.80397,0.92302 -0.99259,1.48888 -0.10463,0.31389 0,0.66173 0,0.99259 0,0.16543 0.074,0.34833 0,0.4963 -0.26675,0.5335 -0.77107,0.93507 -0.99259,1.48888 -0.12288,0.3072 0.14797,0.69665 0,0.99259 -0.20926,0.41851 -0.71184,0.61826 -0.99259,0.99259 -0.4439,0.59186 -0.5822,1.36959 -0.99259,1.98517 -0.12977,0.19466 -0.42231,0.27435 -0.49629,0.4963 -0.10463,0.31388 0.10463,0.6787 0,0.99258 -0.074,0.22195 -0.36652,0.30164 -0.49629,0.4963 -0.2052,0.30779 -0.23473,0.73102 -0.4963,0.99259 -0.016,0.016 -1.36852,0 -1.48888,0 -2.31604,0 -4.63208,0 -6.94812,0 -1.98518,0 -3.97035,0 -5.95553,0 -0.99259,0 -1.98518,0 -2.97776,0 -0.16543,0 -0.4963,0.16543 -0.4963,0 0,-0.16543 0.66173,0 0.4963,0 -0.82716,0 -1.65432,0 -2.48147,0 -0.33087,0 -0.66173,0 -0.99259,0 -0.16543,0 -0.34833,-0.074 -0.4963,0 -0.41851,0.20925 -0.57407,0.78333 -0.99258,0.99259 -0.14797,0.074 -0.34833,-0.074 -0.4963,0 -0.20926,0.10462 -0.28704,0.39166 -0.49629,0.49629 -0.14797,0.074 -0.33087,0 -0.4963,0 -0.33086,0 -0.6716,-0.0802 -0.99259,0 -0.35887,0.0897 -0.66172,0.33086 -0.99258,0.49629 -0.33087,0.16543 -0.63372,0.40658 -0.99259,0.4963 -0.32099,0.0802 -0.66173,0 -0.99259,0 -0.82716,0 -1.65431,0 -2.48147,0 -0.16543,0 -0.33086,0 -0.4963,0 -0.16543,0 -0.34832,-0.074 -0.49629,0 -0.20926,0.10463 -0.28704,0.39166 -0.49629,0.49629 -0.14797,0.074 -0.37932,-0.11698 -0.4963,0 -0.11698,0.11698 0,0.33086 0,0.4963 0,0.16543 0,0.33086 0,0.49629 0,3.80492 0,7.60984 0,11.41477 0,0.82715 0,1.65431 0,2.48147 0,0.16543 -0.11698,0.37931 0,0.49629 0.11698,0.11698 0.33935,-0.0523 0.4963,0 0.35093,0.11698 0.64165,0.37932 0.99258,0.49629 0.34137,0.11379 1.19606,-0.14641 1.48889,0 0.20925,0.10463 0.28704,0.39167 0.49629,0.4963 0.15104,0.0755 1.26537,0 1.48888,0 1.65432,0 3.30863,0 4.96295,0 3.80492,0 7.60984,0 11.41476,0 1.15802,0 2.31604,0 3.47406,0 0.22351,0 1.33784,-0.0755 1.48888,0 0.20926,0.10463 0.28704,0.39166 0.4963,0.49629 0.35137,0.17569 2.33715,-0.19241 2.48147,0 0.40925,0.54568 0.33086,1.32345 0.49629,1.98518"
       id="path3797"
       inkscape:connector-curvature="0" />
    <path
       style="fill:none;stroke:#000000;stroke-width:1px;stroke-linecap:butt;stroke-linejoin:miter;stroke-opacity:1"
       d="m 364.2799,377.89844 c 1.56483,-7.82412 -0.31771,0.45685 0.99259,-3.47406 0.14889,-0.44666 -0.14889,-1.04222 0,-1.48888 0.074,-0.22195 0.33086,-0.66173 0.49629,-0.4963 0.16544,0.16544 -0.60092,0.70555 -0.49629,0.4963 1.82926,-3.65853 0.0675,-0.0675 1.98518,-1.98518 0.26157,-0.26157 0.2911,-0.6848 0.49629,-0.99259 0.12978,-0.19466 0.36652,-0.30163 0.4963,-0.49629 0.20519,-0.30779 0.2911,-0.6848 0.49629,-0.99259 0.49629,-0.74444 0.99259,-0.49629 1.48888,-1.48888 0.14797,-0.29593 -0.10463,-0.67871 0,-0.99259 0.19003,-0.57008 1.18487,-0.68857 1.48888,-0.99259 1.93691,-1.9369 -0.11488,-0.26653 0.4963,-1.48888 0.22713,-0.45427 1.12619,-0.87169 1.48888,-0.99259 0.2686,-0.0895 1.8161,0 1.98518,0 1.15802,0 2.31604,0 3.47406,0 3.80492,0 7.60984,0 11.41476,0 1.48888,0 2.97777,0 4.46665,0 0.72921,0 2.98136,-0.24275 3.47406,0.4963 0.18353,0.27529 -0.10463,0.6787 0,0.99258 0.074,0.22195 0.42231,0.27435 0.49629,0.4963 0.10463,0.31388 -0.0544,0.66623 0,0.99259 0.11214,0.67281 0.38416,1.31236 0.4963,1.98517 0.10878,0.65273 0,1.32345 0,1.98518 0,3.292 -0.23396,-0.70187 0.49629,1.48888 0.0968,0.29037 0,2.55178 0,2.97777 0,0.22351 0.0755,1.33784 0,1.48888 -0.10463,0.20926 -0.28704,0.39167 -0.49629,0.49629 -0.14797,0.074 -0.33087,0 -0.4963,0 -0.16543,0 -0.33086,0 -0.49629,0 -0.82716,0 -1.65432,0 -2.48147,0 -7.60985,0 -15.21969,0 -22.82953,0 -1.48889,0 -2.97777,0 -4.46665,0 -0.16543,0 -0.33086,0 -0.49629,0 -0.16544,0 -0.34833,-0.074 -0.4963,0 -0.20925,0.10463 -0.28704,0.39167 -0.49629,0.4963 -0.29594,0.14796 -0.88796,-0.31389 -0.99259,0 -0.15694,0.47082 0,0.99259 0,1.48888"
       id="path3799"
       inkscape:connector-curvature="0" />
    <path
       style="fill:none;stroke:#000000;stroke-width:1px;stroke-linecap:butt;stroke-linejoin:miter;stroke-opacity:1"
       d="m 382.64279,364.4985 c 1.03033,1.62565 0.15892,4.26869 0.49629,5.95553 0.0459,0.22941 0.42231,0.27434 0.49629,0.49629 0.10463,0.31389 0,0.66173 0,0.99259 0,0.33086 0,0.66173 0,0.99259 0,1.15802 0,2.31604 0,3.47406 0,0.0909 -0.059,2.45197 0,2.48147 0.59187,0.29593 1.32345,0 1.98518,0 -0.49629,0.99259 -1.09922,1.93868 -1.48888,2.97776 -0.0651,0.17371 0,2.25389 0,2.48147 0,1.81975 0,3.63949 0,5.45924 0,0.33086 0,0.66173 0,0.99259 0,0.33086 0.33086,0.99259 0,0.99259 -0.33086,0 -0.14797,-1.28852 0,-0.99259 0.30504,0.61008 0.2806,1.33809 0.49629,1.98517 0.11698,0.35094 0.33086,0.66173 0.4963,0.99259 0.16543,0.4963 0.33086,0.99259 0.49629,1.48889 0.16543,0.49629 0.36941,0.98136 0.49629,1.48888 0.42298,1.6919 -1.38987,-1.78717 0.4963,1.98517 0.10463,0.20926 0.36652,0.30164 0.49629,0.4963 0.2052,0.30779 0.23473,0.73102 0.4963,0.99259 0.11697,0.11697 0.33086,0 0.49629,0 0.16543,0 0.33086,0 0.4963,0 0.66172,0 1.32345,0 1.98517,0 0.82716,0 1.65432,0 2.48147,0 0.16543,0 0.33087,0 0.4963,0 0.16543,0 0.34832,0.074 0.49629,0 0.56896,-0.28448 0.69035,-1.03553 0.99259,-1.48889 0.823,-1.2345 0.11404,-0.057 0.99259,-0.49629 0.20925,-0.10463 0.33086,-0.33086 0.49629,-0.49629 0.38765,-0.38765 1.06063,-1.20338 1.48888,-1.48889 0.30779,-0.20519 0.6848,-0.2911 0.99259,-0.49629 0.32605,-0.21737 1.22027,-1.39934 1.48888,-1.48888 2.25928,0 0.0284,0.23395 1.48889,-0.4963 0.29593,-0.14796 0.75863,0.23396 0.99259,0 0.26157,-0.26157 0.27434,-0.69665 0.49629,-0.99259 0.42112,-0.56149 0.99259,-0.99258 1.48888,-1.48888 0.16543,-0.16543 0.39167,-0.28704 0.4963,-0.49629 0.074,-0.14797 -0.16544,-0.4963 0,-0.4963 0.16543,0 0,0.66173 0,0.4963 0,-2.48147 0,-4.96294 0,-7.44441 0,-0.3361 0.0754,-3.24797 0,-3.47406 -0.38268,-1.14803 -0.4254,-0.11817 -0.99259,-0.4963 -0.33087,-0.33086 -0.66173,-0.66172 -0.99259,-0.99259 -0.16543,0 -0.34833,0.074 -0.49629,0 -0.20926,-0.10462 -0.28704,-0.39166 -0.4963,-0.49629 -0.39703,-0.19852 -1.09185,0.19852 -1.48888,0 -0.20926,-0.10463 -0.28704,-0.39167 -0.4963,-0.49629 -0.39703,-0.19852 -1.09184,0.19851 -1.48888,0 -0.20925,-0.10463 -0.33086,-0.33087 -0.49629,-0.4963"
       id="path3801"
       inkscape:connector-curvature="0" />
    <path
       style="fill:none;stroke:#000000;stroke-width:1px;stroke-linecap:butt;stroke-linejoin:miter;stroke-opacity:1"
       d="m 364.2799,376.40956 c 0,2.31843 0.20062,2.37592 -0.49629,4.46665 -0.11698,0.35093 -0.40658,0.63371 -0.4963,0.99258 -0.0802,0.32099 0.10463,0.67871 0,0.99259 -0.074,0.22195 -0.36652,0.30163 -0.49629,0.4963 -0.20519,0.30778 -0.2911,0.6848 -0.49629,0.99258 -0.25955,0.38933 -0.66173,0.66173 -0.99259,0.99259 -0.66173,0.66173 -1.41064,1.24649 -1.98518,1.98518 -0.59222,0.76143 -0.95381,1.67886 -1.48888,2.48147 -0.45883,0.68824 -0.95935,1.34974 -1.48888,1.98518 -0.3617,0.43404 -1.48889,1.22243 -1.48889,1.98517 0,0.16543 0.33087,0 0.4963,0 0.33086,0 0.66172,0 0.99259,0 0.16543,0 0.33086,0 0.49629,0 0.16543,0 0.35865,0.0918 0.49629,0 1.28797,-0.85864 0.75661,-0.88675 1.48889,-1.98517 0.12977,-0.19467 0.33086,-0.33087 0.49629,-0.4963 1.12125,-1.12124 -0.29593,0.14797 1.98518,-0.99259 0.20925,-0.10462 0.27434,-0.42231 0.49629,-0.49629 0.31389,-0.10463 0.66173,0 0.99259,0 0.16543,0 0.34833,0.074 0.49629,0 0.20926,-0.10463 0.28704,-0.39167 0.4963,-0.49629 0.14796,-0.074 0.34833,0.074 0.49629,0 0.20926,-0.10463 0.28704,-0.39167 0.4963,-0.4963 0.14796,-0.074 0.33086,0 0.49629,0 0.33086,0 0.66173,0 0.99259,0 1.15802,0 2.31604,0 3.47406,0 1.32345,0 2.6469,0 3.97035,0 0.16543,0 0.33086,0 0.49629,0 0.16544,0 0.42232,-0.14796 0.4963,0 0.14797,0.29593 -0.10463,0.67871 0,0.99259 0.074,0.22195 0.42231,0.27434 0.49629,0.49629 0.10463,0.31389 0,0.66173 0,0.99259 0,0.42118 -0.0912,2.70417 0,2.97777 0.074,0.22195 0.36652,0.30163 0.4963,0.49629 0.20519,0.30779 0.23472,0.73102 0.49629,0.99259 0.016,0.016 1.36852,0 1.48888,0 1.48889,0 2.97777,0 4.46665,0 0.3427,0 1.83429,-0.0755 1.98518,0 0.20925,0.10463 0.28704,0.39167 0.49629,0.49629 0.29283,0.14642 1.14752,-0.11379 1.48888,0 1.71084,0.57028 0.36764,0.4963 1.48889,0.4963"
       id="path3803"
       inkscape:connector-curvature="0" />
  </g>
</svg>
